<?xml version="1.0" encoding="UTF-8" standalone="no"?>
<svg
   xmlns:dc="http://purl.org/dc/elements/1.1/"
   xmlns:cc="http://creativecommons.org/ns#"
   xmlns:rdf="http://www.w3.org/1999/02/22-rdf-syntax-ns#"
   xmlns:svg="http://www.w3.org/2000/svg"
   xmlns="http://www.w3.org/2000/svg"
   xmlns:xlink="http://www.w3.org/1999/xlink"
   xmlns:sodipodi="http://sodipodi.sourceforge.net/DTD/sodipodi-0.dtd"
   xmlns:inkscape="http://www.inkscape.org/namespaces/inkscape"
   inkscape:version="1.0 (4035a4fb49, 2020-05-01)"
   sodipodi:docname="magnet4.svg"
   id="svg8"
   version="1.1"
   viewBox="0 0 48 48"
   height="48"
   width="48">
  <defs
     id="defs2">
    <linearGradient
       id="linearGradient3783"
       inkscape:collect="always">
      <stop
         id="stop3779"
         offset="0"
         style="stop-color:#000000;stop-opacity:1;" />
      <stop
         id="stop3781"
         offset="1"
         style="stop-color:#000000;stop-opacity:0;" />
    </linearGradient>
    <filter
       height="1"
       y="-2.8548186e-22"
       width="1"
       x="-2.4980329e-22"
       id="filter3732"
       style="color-interpolation-filters:sRGB"
       inkscape:collect="always">
      <feGaussianBlur
         id="feGaussianBlur3734"
         stdDeviation="3.0810424e-21"
         inkscape:collect="always" />
    </filter>
    <filter
       height="1"
       y="-4.6238588e-22"
       width="1"
       x="-3.8075257e-22"
       id="filter3736"
       style="color-interpolation-filters:sRGB"
       inkscape:collect="always">
      <feGaussianBlur
         id="feGaussianBlur3738"
         stdDeviation="3.0810424e-21"
         inkscape:collect="always" />
    </filter>
    <filter
       height="1"
       y="-7.2456493e-22"
       width="1"
       x="-6.0276629e-22"
       id="filter3740"
       style="color-interpolation-filters:sRGB"
       inkscape:collect="always">
      <feGaussianBlur
         id="feGaussianBlur3742"
         stdDeviation="3.0810424e-21"
         inkscape:collect="always" />
    </filter>
    <linearGradient
       gradientUnits="userSpaceOnUse"
       y2="16.359501"
       x2="45.495265"
       y1="16.359501"
       x1="15.893967"
       id="linearGradient3785"
       xlink:href="#linearGradient3783"
       inkscape:collect="always" />
  </defs>
  <sodipodi:namedview
     scale-x="1"
     inkscape:window-maximized="1"
     inkscape:window-y="-8"
     inkscape:window-x="-8"
     inkscape:window-height="715"
     inkscape:window-width="1366"
     inkscape:snap-bbox="true"
     borderlayer="false"
     units="px"
     showgrid="false"
     inkscape:document-rotation="0"
     inkscape:current-layer="layer2"
     inkscape:document-units="px"
     inkscape:cy="7.8420847"
     inkscape:cx="30.074787"
     inkscape:zoom="5.6"
     inkscape:pageshadow="2"
     inkscape:pageopacity="0.0"
     borderopacity="1.0"
     bordercolor="#666666"
     pagecolor="#ffffff"
     id="base" />
  <metadata
     id="metadata5">
    <rdf:RDF>
      <cc:Work
         rdf:about="">
        <dc:format>image/svg+xml</dc:format>
        <dc:type
           rdf:resource="http://purl.org/dc/dcmitype/StillImage" />
        <dc:title></dc:title>
      </cc:Work>
    </rdf:RDF>
  </metadata>
  <g
     inkscape:label="Iman"
     id="layer2"
     inkscape:groupmode="layer">
    <g
       style="display:inline;opacity:1;stroke-width:2.88251;stroke-miterlimit:4;stroke-dasharray:none;paint-order:markers fill stroke"
       transform="matrix(0.29546723,0.23500862,-0.17723409,0.22256954,5.3939704,-37.060147)"
       id="g984">
      <path
         sodipodi:nodetypes="cccccccssscc"
         id="path870"
         style="opacity:0.999;fill:#cccccc;stroke:#000000;stroke-width:10.8945;stroke-linejoin:round;stroke-miterlimit:4;stroke-dasharray:none;paint-order:markers fill stroke"
         d="m 389.80078,551.25 v 132.2832 c 1.8e-4,47.26043 25.21362,90.93073 66.14258,114.56055 40.92855,23.63016 91.35465,23.63016 132.2832,0 40.92896,-23.62982 66.1424,-67.30012 66.14258,-114.56055 V 551.25 l -88.7195,0.0602 0.0378,100.05422 c 0.0167,44.15938 -29.84194,53.89661 -43.48868,54.59948 -15.49004,0.79782 -43.73944,-12.84837 -43.75523,-54.79209 l -0.0376,-99.98166 z"
         transform="scale(0.26458333)" />
      <rect
         transform="matrix(0.99999968,8.0616726e-4,6.057533e-4,0.99999982,0,0)"
         style="opacity:1;fill:#ff0000;stroke:#000000;stroke-width:3.32534;stroke-linecap:square;stroke-linejoin:round;stroke-miterlimit:4;stroke-dasharray:none;paint-order:markers fill stroke"
         id="rect964"
         width="23.445095"
         height="22.527592"
         x="103.04482"
         y="123.16341" />
      <rect
         transform="matrix(0.99999991,-4.2042126e-4,-5.0808442e-4,0.99999987,0,0)"
         y="123.36804"
         x="149.73912"
         height="22.556364"
         width="23.470194"
         id="rect964-4"
         style="opacity:1;fill:#00ff00;stroke:#000000;stroke-width:3.32534;stroke-linejoin:round;stroke-miterlimit:4;stroke-dasharray:none;paint-order:markers fill stroke" />
    </g>
    <g
       style="fill-opacity:1;fill:url(#linearGradient3785)"
       id="g3777">
      <path
         id="path3644"
         style="opacity:1;fill:url(#linearGradient3785);fill-opacity:1;stroke:none;stroke-width:0;stroke-linecap:square;stroke-linejoin:round;stroke-miterlimit:4;stroke-dasharray:none;paint-order:markers fill stroke;filter:url(#filter3732)"
         d="M 32.955657,6.8331509 C 40.660728,10.538814 43.98917,20.088819 44.10443,29.310415 51.430297,10.273264 28.013121,-4.5724079 15.893967,8.1553245 c 0,0 11.212748,-3.6852177 17.06169,-1.3221736 z"
         sodipodi:nodetypes="cccc" />
      <path
         id="path3646"
         style="opacity:1;fill:url(#linearGradient3785);fill-opacity:1;stroke:none;stroke-width:1.3;stroke-linecap:square;stroke-linejoin:round;stroke-miterlimit:4;stroke-dasharray:none;paint-order:markers fill stroke;filter:url(#filter3736)"
         d="m 32.128176,12.665875 c 3.785363,2.699603 6.428324,8.163665 4.737574,13.118951 3.261948,-3.455569 1.64477,-11.552618 -3.989065,-14.400455 -5.633835,-2.8478371 -11.826358,-1.4954835 -13.762369,1.08923 4.150977,-1.544911 9.481672,-2.326772 13.01386,0.192274 z"
         sodipodi:nodetypes="aczca" />
      <path
         id="path3648"
         style="opacity:1;fill:url(#linearGradient3785);fill-opacity:1;stroke:none;stroke-width:1.3;stroke-linecap:square;stroke-linejoin:round;stroke-miterlimit:4;stroke-dasharray:none;paint-order:markers fill stroke;filter:url(#filter3740)"
         d="m 22.285639,16.59647 c 3.430527,-0.643299 5.809869,0.48981 7.984345,2.189043 2.088391,1.631963 3.740261,5.033966 3.893679,6.932633 0.697073,-0.348537 0.386289,-3.432869 -0.361015,-4.934111 -1.22488,-2.460634 -4.015688,-4.32619 -6.213771,-4.875139 -2.198083,-0.548949 -3.980567,-0.698209 -5.303238,0.687574 z"
         sodipodi:nodetypes="cacszc" />
    </g>
  </g>
</svg>
